Coordinates
version=1
nRows=13
nColumns=38
inDegrees=no

Units are S.I. units (second, meters, Newtons, ...)
If the header above contains a line with 'inDegrees', this indicates whether rotational values are in degrees (yes) or radians (no).

endheader
time	pelvis_tilt	pelvis_list	pelvis_rotation	pelvis_tx	pelvis_ty	pelvis_tz	hip_flexion_r	hip_adduction_r	hip_rotation_r	knee_angle_r	ankle_angle_r	subtalar_angle_r	mtp_angle_r	hip_flexion_l	hip_adduction_l	hip_rotation_l	knee_angle_l	ankle_angle_l	subtalar_angle_l	mtp_angle_l	lumbar_extension	lumbar_bending	lumbar_rotation	arm_flex_r	arm_add_r	arm_rot_r	elbow_flex_r	pro_sup_r	wrist_flex_r	wrist_dev_r	arm_flex_l	arm_add_l	arm_rot_l	elbow_flex_l	pro_sup_l	wrist_flex_l	wrist_dev_l
10	-3.10691	1.28362	-1.65337	0.687053	1.79494	0.946032	0.0756449	-0.191203	-0.156328	1.13572	-0.084896	0	0	-0.147978	0.0673204	-0.316859	0.182392	-0.0636735	0	0	-0.273249	-0.0814141	0.0634671	0.738017	-0.287603	0.426438	0.867476	1.5708	0	0	0.669099	-0.131813	0.373182	1.05568	1.5708	0	0
10.01	-3.1031	1.28218	-1.65985	0.687708	1.79228	0.945858	0.0609759	-0.193682	-0.161683	1.12642	-0.0886541	0	0	-0.148322	0.0687116	-0.317818	0.178914	-0.0671036	0	0	-0.272018	-0.0810197	0.0662042	0.736914	-0.288055	0.428375	0.869026	1.5708	0	0	0.666876	-0.132833	0.372789	1.05519	1.5708	0	0
10.02	-3.10073	1.28077	-1.66503	0.68845	1.78955	0.945705	0.0454154	-0.195668	-0.16804	1.11384	-0.0924915	0	0	-0.148783	0.0695881	-0.318891	0.175015	-0.0708543	0	0	-0.270894	-0.0801834	0.069076	0.735741	-0.288364	0.429957	0.870891	1.5708	0	0	0.6645	-0.134019	0.37214	1.05508	1.5708	0	0
10.03	-3.09853	1.27953	-1.67023	0.689287	1.78675	0.945565	0.0292215	-0.197406	-0.174989	1.09848	-0.0942561	0	0	-0.149062	0.0703213	-0.320047	0.170988	-0.0747773	0	0	-0.269679	-0.0793486	0.0720189	0.734393	-0.288223	0.43066	0.872964	1.5708	0	0	0.66189	-0.135422	0.371596	1.05537	1.5708	0	0
10.04	-3.09689	1.27821	-1.67547	0.690227	1.78378	0.945423	0.0127766	-0.198683	-0.18177	1.08154	-0.0882971	0	0	-0.149012	0.0708821	-0.322107	0.167257	-0.0792093	0	0	-0.268813	-0.0784437	0.075317	0.733545	-0.287687	0.431365	0.874819	1.5708	0	0	0.659276	-0.136768	0.36993	1.05613	1.5708	0	0
10.05	-3.09637	1.27654	-1.67981	0.691231	1.78061	0.945291	-0.00527801	-0.198857	-0.189378	1.06086	-0.0774708	0	0	-0.148902	0.0710929	-0.324344	0.164029	-0.083526	0	0	-0.268759	-0.0772935	0.0785943	0.73352	-0.286914	0.432786	0.876592	1.5708	0	0	0.656868	-0.138317	0.367729	1.05736	1.5708	0	0
10.06	-3.09701	1.27471	-1.68277	0.692287	1.7774	0.945182	-0.025135	-0.198407	-0.198921	1.03523	-0.0637881	0	0	-0.148923	0.0708541	-0.326398	0.160888	-0.0875652	0	0	-0.268943	-0.0757655	0.0816328	0.733632	-0.285802	0.434077	0.87837	1.5708	0	0	0.654385	-0.139994	0.365444	1.05846	1.5708	0	0
10.07	-3.09915	1.27326	-1.68381	0.693416	1.7743	0.945114	-0.04678	-0.196679	-0.210633	1.0035	-0.0465147	0	0	-0.148734	0.0698177	-0.328514	0.157774	-0.0915	0	0	-0.268408	-0.0737116	0.0843165	0.733054	-0.284101	0.434653	0.880042	1.5708	0	0	0.651239	-0.141842	0.363059	1.05962	1.5708	0	0
10.08	-3.10132	1.27256	-1.68552	0.694799	1.77097	0.944974	-0.067713	-0.193131	-0.221156	0.968483	-0.0287658	0	0	-0.146941	0.0682043	-0.33143	0.15567	-0.0951195	0	0	-0.267473	-0.0720826	0.0878642	0.732672	-0.281917	0.434787	0.881474	1.5708	0	0	0.648951	-0.144252	0.362097	1.06061	1.5708	0	0
10.09	-3.10828	1.27286	-1.68317	0.696202	1.76741	0.944899	-0.0882945	-0.186578	-0.2309	0.930074	-0.0106965	0	0	-0.144073	0.0650629	-0.333988	0.153363	-0.0996873	0	0	-0.267497	-0.0676888	0.0879278	0.736825	-0.276658	0.440679	0.880438	1.5708	0	0	0.629333	-0.125984	0.150877	1.15615	0.956399	0	0
10.1	-3.11043	1.27372	-1.68585	0.697843	1.76352	0.944577	-0.106689	-0.180963	-0.239658	0.893815	0.00993225	0	0	-0.139037	0.0627576	-0.337321	0.152976	-0.104168	0	0	-0.266221	-0.0662793	0.0921172	0.738029	-0.274293	0.441936	0.881319	1.5708	0	0	0.627568	-0.128072	0.147087	1.15734	0.942794	0	0
10.11	-3.11114	1.27228	-1.68908	0.699672	1.75937	0.944327	-0.128379	-0.175332	-0.250117	0.857247	0.0355485	0	0	-0.13481	0.0601479	-0.342694	0.155373	-0.108251	0	0	-0.266859	-0.0668516	0.0991204	0.736581	-0.274255	0.43793	0.88433	1.5708	0	0	0.642665	-0.150694	0.350369	1.06698	1.5708	0	0
10.12	-3.11203	1.27365	-1.69354	0.701537	1.75513	0.943974	-0.145636	-0.169169	-0.258377	0.82336	0.0622765	0	0	-0.127549	0.0574723	-0.349207	0.157525	-0.113062	0	0	-0.265766	-0.0660965	0.103968	0.737981	-0.27163	0.438315	0.88557	1.5708	0	0	0.641311	-0.152914	0.347171	1.06864	1.5708	0	0
